<svg width="76" height="75" viewBox="0 0 76 75" fill="none" xmlns="http://www.w3.org/2000/svg">
<circle cx="38.3728" cy="37.5" r="37.5" fill="#F8C144"/>
<ellipse cx="31.8083" cy="23.4328" rx="3.59158" ry="3.12029" fill="#524C57"/>
<ellipse cx="45.4564" cy="23.4328" rx="3.59158" ry="3.12029" fill="#524C57"/>
<path d="M24.7489 35.053C24.0149 32.706 27.014 31.029 28.6294 32.8832C28.7745 33.0498 28.8945 33.2366 28.9857 33.4378L29.4591 34.4828C33.0439 42.3946 44.2843 42.3841 47.8533 34.4655L48.1854 33.7286C48.2513 33.5823 48.3321 33.4432 48.4264 33.3134C49.9432 31.2253 53.2288 32.7567 52.6054 35.2611L51.9751 37.7934C51.9052 38.0744 51.7874 38.3412 51.6269 38.5822C45.5576 47.6977 32.1541 47.7148 25.9918 38.6612C25.8517 38.4555 25.7423 38.2295 25.668 37.992L24.7489 35.053Z" fill="#524C57"/>
</svg>
