<svg width="75" height="75" viewBox="0 0 75 75" fill="none" xmlns="http://www.w3.org/2000/svg">
<circle cx="37.5" cy="37.5" r="37.5" fill="#7FBEF9"/>
<ellipse cx="31.223" cy="21.176" rx="3.59158" ry="3.12029" fill="#524C57"/>
<ellipse cx="44.8713" cy="21.176" rx="3.59158" ry="3.12029" fill="#524C57"/>
<path d="M51.408 41.0059C52.1428 43.3527 49.1442 45.0307 47.5282 43.177V43.177C47.3831 43.0104 47.263 42.8236 47.1717 42.6224L46.6979 41.5777C43.1106 33.667 31.8702 33.6812 28.3038 41.6009L27.9595 42.3655C27.9019 42.4934 27.8313 42.6151 27.7489 42.7287V42.7287C26.3902 44.6003 23.4546 43.1464 24.1198 40.9313L24.9066 38.3112C24.9686 38.1046 25.0578 37.9073 25.172 37.7243V37.7243C30.8495 28.6234 44.1302 28.5396 50.1691 37.4056V37.4056C50.3048 37.6049 50.4124 37.8261 50.4845 38.0562L51.408 41.0059Z" fill="#524C57"/>
</svg>
